<svg xmlns="http://www.w3.org/2000/svg" xmlns:xlink="http://www.w3.org/1999/xlink" version="1.1" id="Layer_1" x="0px" y="0px" viewBox="0 0 84.8 28.3" style="enable-background:new 0 0 84.8 28.3;" xml:space="preserve">
<style type="text/css">
	.st0{fill:#ffffff;}
</style>
<g>
	<path class="st0" d="M29.9,8.1c0,0.5-0.2,0.9-0.5,1.2c-0.3,0.4-0.8,0.5-1.4,0.5c-0.5,0-1-0.2-1.4-0.6C26.3,9,26.1,8.5,26.1,8   c0-0.5,0.2-1,0.6-1.4C27.1,6.2,27.5,6,28.1,6c0.3,0,0.5,0.1,0.8,0.2c0.2,0.1,0.4,0.2,0.6,0.4l-0.3,0.3c-0.2-0.3-0.6-0.4-1-0.4   c-0.4,0-0.7,0.1-1,0.4c-0.3,0.3-0.4,0.6-0.4,1.1S26.8,8.8,27,9c0.3,0.3,0.6,0.4,1,0.4c0.4,0,0.8-0.1,1-0.4c0.2-0.2,0.3-0.4,0.3-0.8   h-1.3V7.8h1.8C29.9,7.9,29.9,8,29.9,8.1z"/>
	<path class="st0" d="M32.7,6.6H31v1.2h1.5v0.4H31v1.2h1.7v0.5h-2.2V6.1h2.2V6.6z"/>
	<path class="st0" d="M34.7,9.8h-0.5V6.6h-1V6.1h2.6v0.5h-1V9.8z"/>
	<path class="st0" d="M37.6,9.8V6.1h0.5v3.7H37.6z"/>
	<path class="st0" d="M40.2,9.8h-0.5V6.6h-1V6.1h2.6v0.5h-1V9.8z"/>
	<path class="st0" d="M46.1,9.3c-0.4,0.4-0.8,0.6-1.4,0.6c-0.5,0-1-0.2-1.4-0.6C43,9,42.8,8.5,42.8,8s0.2-1,0.5-1.4   C43.7,6.2,44.2,6,44.7,6c0.5,0,1,0.2,1.4,0.6C46.5,7,46.6,7.4,46.6,8C46.6,8.5,46.5,9,46.1,9.3z M43.7,9c0.3,0.3,0.6,0.4,1,0.4   s0.7-0.1,1-0.4C46,8.8,46.1,8.4,46.1,8c0-0.4-0.1-0.8-0.4-1.1c-0.3-0.3-0.6-0.4-1-0.4s-0.7,0.1-1,0.4c-0.3,0.3-0.4,0.6-0.4,1.1   C43.3,8.4,43.4,8.8,43.7,9z"/>
	<path class="st0" d="M47.3,9.8V6.1h0.6L49.7,9h0l0-0.7V6.1h0.5v3.7h-0.5l-1.9-3h0l0,0.7v2.3H47.3z"/>
	<path class="st0" d="M42.7,15.2c-1.5,0-2.6,1.1-2.6,2.6c0,1.5,1.2,2.6,2.6,2.6c1.5,0,2.6-1.1,2.6-2.6   C45.3,16.4,44.2,15.2,42.7,15.2z M42.7,19.5c-0.8,0-1.5-0.7-1.5-1.6c0-0.9,0.7-1.6,1.5-1.6s1.5,0.6,1.5,1.6   C44.2,18.8,43.5,19.5,42.7,19.5z M36.9,15.2c-1.5,0-2.6,1.1-2.6,2.6c0,1.5,1.2,2.6,2.6,2.6c1.5,0,2.6-1.1,2.6-2.6   C39.6,16.4,38.4,15.2,36.9,15.2z M36.9,19.5c-0.8,0-1.5-0.7-1.5-1.6c0-0.9,0.7-1.6,1.5-1.6c0.8,0,1.5,0.6,1.5,1.6   C38.4,18.8,37.7,19.5,36.9,19.5z M30.1,16.1v1.1h2.7c-0.1,0.6-0.3,1.1-0.6,1.4c-0.4,0.4-1,0.8-2.1,0.8c-1.6,0-2.9-1.3-2.9-3   s1.3-3,2.9-3c0.9,0,1.5,0.3,2,0.8l0.8-0.8c-0.7-0.6-1.6-1.1-2.8-1.1c-2.3,0-4.1,1.8-4.1,4.1c0,2.3,1.9,4.1,4.1,4.1   c1.2,0,2.1-0.4,2.9-1.1c0.7-0.7,1-1.8,1-2.6c0-0.3,0-0.5-0.1-0.7H30.1z M58.1,16.9c-0.2-0.6-0.9-1.7-2.3-1.7   c-1.4,0-2.5,1.1-2.5,2.6c0,1.5,1.1,2.6,2.6,2.6c1.2,0,1.9-0.7,2.2-1.2l-0.9-0.6c-0.3,0.4-0.7,0.7-1.3,0.7c-0.6,0-1-0.3-1.3-0.8   l3.5-1.5L58.1,16.9z M54.5,17.8c0-1,0.8-1.5,1.4-1.5c0.5,0,0.8,0.2,1,0.6L54.5,17.8z M51.7,20.3h1.2v-7.7h-1.2V20.3z M49.8,15.8   L49.8,15.8c-0.3-0.3-0.8-0.6-1.4-0.6c-1.3,0-2.5,1.2-2.5,2.6c0,1.5,1.2,2.6,2.5,2.6c0.6,0,1.1-0.3,1.4-0.6h0v0.4   c0,1-0.5,1.5-1.4,1.5c-0.7,0-1.1-0.5-1.3-0.9l-1,0.4c0.3,0.7,1.1,1.6,2.3,1.6c1.4,0,2.5-0.8,2.5-2.7v-4.7h-1.1V15.8z M48.5,19.5   c-0.8,0-1.5-0.7-1.5-1.6c0-0.9,0.7-1.6,1.5-1.6c0.8,0,1.4,0.7,1.4,1.6C49.9,18.8,49.2,19.5,48.5,19.5z M63.5,12.6h-2.8v7.7h1.2   v-2.9h1.6c1.3,0,2.5-0.9,2.5-2.4S64.8,12.6,63.5,12.6z M63.6,16.3h-1.6v-2.7h1.6c0.9,0,1.4,0.7,1.4,1.3   C64.9,15.6,64.4,16.3,63.6,16.3z M70.7,15.2c-0.8,0-1.7,0.4-2.1,1.2l1,0.4c0.2-0.4,0.6-0.6,1.1-0.6c0.6,0,1.2,0.4,1.2,1v0.1   c-0.2-0.1-0.7-0.3-1.2-0.3c-1.1,0-2.2,0.6-2.2,1.7c0,1,0.9,1.7,1.9,1.7c0.8,0,1.2-0.3,1.5-0.8h0v0.6h1.1v-3   C73.1,16,72,15.2,70.7,15.2z M70.6,19.5c-0.4,0-0.9-0.2-0.9-0.7c0-0.6,0.7-0.8,1.2-0.8c0.5,0,0.7,0.1,1.1,0.3   C71.8,19,71.2,19.5,70.6,19.5z M77.1,15.4l-1.3,3.4h0l-1.4-3.4h-1.2l2.1,4.7L74,22.7h1.2l3.2-7.3H77.1z M66.7,20.3h1.2v-7.7h-1.2   V20.3z"/>
	
	<g>
		<path class="st0" d="M17.5,17.4l-2.3-2.3l-7.6,7.6c0.2,0,0.5,0,0.7-0.2L17.5,17.4z"/>
		<path class="st0" d="M7.1,7.4v14.5c0,0.2,0,0.4,0.1,0.5l7.7-7.7L7.2,6.9C7.1,7,7.1,7.2,7.1,7.4z"/>
		<path class="st0" d="M21.6,14.6c0-0.3-0.2-0.5-0.6-0.7l-3-1.7l-2.4,2.4l2.4,2.4l3-1.7C21.4,15.1,21.6,14.9,21.6,14.6z"/>
		<path class="st0" d="M17.5,11.9L8.3,6.7C8.1,6.5,7.8,6.5,7.6,6.5l7.6,7.6L17.5,11.9z"/>
	</g>
</g>
</svg>