<?xml version="1.0" standalone="no"?>
<!DOCTYPE svg PUBLIC "-//W3C//DTD SVG 20010904//EN"
 "http://www.w3.org/TR/2001/REC-SVG-20010904/DTD/svg10.dtd">
<svg version="1.0" xmlns="http://www.w3.org/2000/svg"
 width="500.000000pt" height="500.000000pt" viewBox="0 0 500.000000 500.000000"
 preserveAspectRatio="xMidYMid meet">
<metadata>
Created by potrace 1.11, written by Peter Selinger 2001-2013
</metadata>
<g transform="translate(0.000000,500.000000) scale(0.100000,-0.100000)"
fill="#000000" stroke="none">
<path d="M3699 4929 c-8 -5 -9 -9 -4 -9 6 0 6 -3 -1 -8 -6 -4 -21 -41 -35 -82
-13 -41 -28 -78 -34 -82 -5 -4 -6 -8 -1 -8 5 0 4 -6 -1 -12 -6 -7 -14 -26 -18
-43 -10 -36 -10 -36 -18 -55 -8 -19 -57 -151 -61 -165 -2 -5 -6 -19 -10 -30
-20 -54 -19 -48 -27 -85 -2 -8 -8 -18 -12 -21 -14 -10 -13 -62 2 -67 10 -3 11
0 5 9 -7 12 -5 12 9 0 12 -9 17 -10 17 -2 0 7 4 9 10 6 16 -10 90 -11 90 -2 0
5 7 4 16 -4 13 -10 17 -10 24 0 6 11 9 11 13 0 4 -11 6 -11 6 -1 1 7 5 10 11
7 16 -10 90 -11 90 -2 0 5 7 4 16 -4 13 -10 17 -10 24 0 6 11 9 11 13 0 4 -11
6 -11 6 -1 1 7 5 11 11 7 14 -9 124 -10 138 -1 7 4 12 4 12 -1 0 -4 11 -8 25
-8 14 0 25 5 25 10 0 7 3 7 8 0 4 -5 14 -10 22 -10 8 0 18 5 22 10 5 6 8 5 8
-3 0 -15 33 13 36 32 2 6 23 67 49 136 25 69 52 145 61 170 8 25 19 54 24 65
4 11 18 49 31 85 12 36 27 71 32 78 5 6 6 12 3 12 -4 0 -2 8 3 18 6 11 12 30
15 45 l4 25 -322 0 c-178 0 -329 -4 -337 -9z"/>
<path d="M2484 4033 c-4 -18 -10 -33 -14 -33 -3 0 -7 -7 -8 -15 -1 -8 -3 -22
-4 -30 -1 -8 -5 -15 -10 -15 -4 0 -7 -3 -7 -7 1 -5 0 -11 -1 -15 -1 -5 -4 -12
-5 -18 -1 -5 -4 -12 -5 -15 -1 -3 -3 -8 -5 -12 -1 -5 -7 -21 -14 -38 -7 -16
-13 -38 -14 -47 -1 -10 -5 -18 -9 -18 -4 0 -8 -9 -8 -19 0 -11 -5 -23 -10 -26
-6 -4 -8 -11 -5 -16 4 -5 1 -9 -6 -9 -7 0 -10 -3 -6 -6 3 -4 0 -21 -8 -39 -7
-19 -11 -36 -7 -39 3 -3 1 -6 -5 -6 -5 0 -10 -6 -11 -12 -2 -24 -57 -173 -66
-179 -5 -4 -7 -12 -4 -19 3 -10 77 -13 327 -14 178 -1 326 1 330 4 4 3 16 28
26 55 10 28 22 55 27 61 4 6 9 23 10 38 1 14 6 26 10 26 4 0 8 8 8 18 0 10 3
22 8 26 4 4 7 11 8 14 6 39 18 72 25 72 5 0 8 3 7 8 -5 13 25 92 34 92 5 0 7
4 3 9 -5 9 12 62 36 116 14 30 39 106 39 117 0 5 -84 8 -204 7 -112 -1 -209 2
-215 5 -6 4 -11 4 -11 -1 0 -10 -93 -8 -109 1 -6 4 -11 4 -11 -1 0 -12 -94
-10 -102 2 -4 6 -10 -5 -14 -22z"/>
<path d="M4350 4052 c0 -4 -217 -6 -482 -4 -305 1 -485 -1 -491 -7 -10 -10
-53 -124 -64 -168 -3 -13 -9 -23 -12 -23 -4 0 -8 -6 -9 -12 -1 -27 -12 -61
-22 -72 -5 -7 -7 -16 -3 -19 3 -4 2 -7 -4 -7 -5 0 -10 -6 -10 -12 -1 -21 -44
-142 -56 -157 -7 -8 -11 -17 -10 -20 4 -9 -20 -82 -38 -121 -10 -19 -15 -37
-13 -39 6 -7 1523 -7 1542 0 9 3 17 10 17 15 0 5 3 14 6 19 4 6 14 35 24 65
10 30 21 59 26 64 5 6 9 20 9 33 0 13 4 23 10 23 5 0 7 7 4 15 -4 8 -1 15 6
15 6 0 8 5 5 10 -4 6 -1 17 5 25 7 8 9 15 5 15 -4 0 -3 6 2 13 6 6 20 41 33
77 12 36 26 71 32 78 6 6 7 12 3 12 -4 0 -1 7 6 17 8 9 13 17 11 17 -5 2 10
60 18 71 5 6 12 26 18 46 l10 36 -33 -7 c-21 -5 -38 -3 -44 3 -6 6 -11 7 -11
2 0 -11 -92 -11 -109 -1 -6 4 -11 4 -11 -1 0 -10 -93 -8 -109 1 -6 4 -11 4
-11 -1 0 -4 -24 -7 -52 -6 -29 1 -53 2 -53 3 0 1 -19 2 -43 3 -23 1 -42 -1
-42 -5 0 -4 -13 -3 -30 2 -16 5 -30 6 -30 2z"/>
<path d="M1282 3161 c-4 -4 -8 -13 -10 -21 -1 -8 -7 -24 -12 -35 -5 -11 -18
-49 -30 -85 -12 -36 -28 -76 -35 -90 -7 -14 -14 -28 -14 -32 -7 -45 -15 -67
-22 -62 -5 3 -9 -3 -9 -13 0 -19 -41 -144 -50 -153 -3 -3 -16 -36 -29 -75 -13
-38 -34 -104 -48 -145 -14 -41 -33 -84 -42 -94 -13 -16 -13 -18 -1 -11 12 7
13 6 5 -6 -6 -8 -17 -32 -24 -54 -13 -41 -27 -77 -41 -106 -5 -9 -12 -33 -15
-53 -4 -20 -12 -33 -17 -30 -6 4 -8 1 -6 -7 3 -8 -3 -34 -14 -57 -10 -24 -16
-48 -12 -53 3 -5 1 -9 -5 -9 -8 0 -67 -166 -64 -180 1 -3 -6 -13 -14 -23 -9
-9 -13 -20 -10 -24 4 -3 2 -12 -4 -20 -6 -7 -8 -13 -3 -13 5 0 5 -4 -1 -8 -9
-6 -40 -83 -49 -122 -2 -8 -16 -45 -31 -82 -15 -37 -28 -73 -29 -81 -1 -8 -8
-23 -16 -33 -11 -13 -12 -16 -1 -10 10 7 10 3 -2 -15 -8 -13 -25 -55 -37 -94
-13 -38 -26 -75 -31 -81 -5 -6 -11 -21 -13 -35 -3 -13 -5 -26 -6 -29 -2 -3 -2
-8 -1 -12 0 -5 -3 -8 -7 -8 -5 0 -9 -7 -10 -15 -1 -8 -3 -22 -4 -30 -1 -8 -4
-15 -7 -15 -3 0 -15 -29 -26 -65 -10 -36 -22 -65 -25 -65 -4 0 -7 -6 -7 -12
-1 -7 -6 -28 -11 -45 -6 -18 -8 -33 -4 -33 3 0 -1 -6 -9 -13 -13 -10 -47 -101
-49 -132 -1 -5 -7 -19 -14 -30 -13 -21 -30 -75 -28 -87 1 -5 -2 -8 -8 -8 -6 0
-9 -3 -8 -7 3 -11 -22 -85 -33 -99 -5 -6 -10 -23 -11 -38 -1 -14 -6 -26 -11
-26 -4 0 -6 -4 -2 -9 3 -5 1 -12 -5 -16 -6 -4 -8 -11 -5 -16 4 -5 1 -9 -5 -9
-7 0 -10 -6 -7 -12 2 -7 -5 -28 -15 -46 -10 -18 -16 -37 -13 -43 4 -5 1 -9 -5
-9 -6 0 -8 -5 -4 -11 3 -6 2 -14 -3 -18 -5 -3 -18 -34 -29 -68 -16 -50 -18
-63 -7 -67 7 -3 13 -2 13 2 0 8 185 6 207 -2 8 -3 11 -1 8 4 -8 12 -3 12 28 1
13 -5 30 -5 37 -1 9 5 20 4 27 -2 10 -8 13 -7 13 3 0 11 2 11 10 -1 6 -10 10
-11 10 -3 0 9 7 10 23 4 14 -5 30 -5 40 0 12 7 17 6 17 -2 0 -9 3 -9 14 0 10
8 16 9 21 1 4 -7 12 -7 26 0 13 8 19 7 19 0 0 -6 5 -8 12 -4 17 11 48 12 54 3
2 -5 15 -5 27 0 12 4 28 6 35 4 7 -3 15 7 18 26 4 17 13 36 20 42 8 6 12 15 9
19 -3 4 2 20 10 36 7 15 12 31 9 36 -3 4 -1 8 5 8 6 0 8 7 5 15 -4 8 -1 15 5
15 6 0 10 3 9 8 0 4 2 16 6 27 4 11 13 34 19 50 7 17 12 32 12 35 1 3 9 22 18
44 9 21 14 42 11 47 -3 5 -1 9 4 9 5 0 9 6 9 13 1 21 8 42 16 48 5 3 10 12 11
20 2 8 8 27 14 42 7 16 12 34 12 40 0 7 7 25 15 41 8 15 17 40 20 54 2 14 8
28 12 31 4 3 9 14 11 25 2 10 8 30 14 45 6 14 13 34 15 44 1 10 10 31 18 47 8
16 15 38 15 50 0 11 5 20 11 20 5 0 8 4 4 9 -3 5 0 13 6 16 5 4 8 13 5 21 -3
8 -1 14 4 14 6 0 10 8 10 18 0 10 3 22 7 26 8 8 32 72 39 105 3 14 16 48 29
78 14 29 27 67 30 85 4 18 11 36 18 40 7 4 8 8 2 8 -5 0 -4 5 3 12 7 7 12 20
12 30 0 10 4 26 9 36 17 33 54 136 54 149 0 7 5 13 10 13 6 0 7 3 4 7 -4 3 -1
16 6 27 8 12 22 51 33 89 10 37 22 67 25 67 4 0 10 16 13 35 4 19 11 35 17 35
6 0 8 4 5 9 -5 8 9 52 64 196 4 11 7 23 6 26 0 3 5 13 13 22 7 10 11 17 8 17
-3 0 1 16 9 35 8 19 14 37 14 40 1 3 9 24 19 47 15 37 23 61 32 103 2 6 8 16
15 22 7 7 11 21 10 30 -2 10 3 24 11 32 8 7 12 20 9 27 -3 8 -2 14 3 14 4 0 8
6 9 13 2 20 56 172 64 177 4 3 10 17 12 30 2 14 5 26 7 28 1 1 2 5 4 10 2 8
14 39 25 67 4 11 13 34 18 50 6 17 14 39 18 50 4 11 8 22 9 25 1 3 7 19 14 35
20 51 23 59 27 85 3 14 9 29 15 35 5 5 9 12 9 15 0 7 -658 8 -668 1z"/>
<path d="M2158 3136 c-7 -17 -12 -34 -10 -38 1 -5 -2 -8 -8 -8 -5 0 -10 -8
-10 -17 0 -10 -6 -29 -13 -43 -7 -14 -21 -54 -32 -90 -10 -36 -25 -75 -33 -87
-8 -13 -11 -23 -7 -23 4 0 3 -6 -3 -12 -5 -7 -14 -29 -20 -48 -6 -19 -24 -72
-41 -117 -16 -46 -27 -83 -23 -83 4 0 -2 -7 -12 -15 -11 -8 -17 -15 -13 -15 4
0 2 -12 -4 -27 -12 -30 -19 -59 -22 -83 -1 -8 -8 -19 -15 -25 -7 -5 -14 -19
-16 -31 -9 -47 -30 -104 -38 -104 -4 0 -7 -3 -7 -7 1 -5 0 -11 -1 -15 -1 -5
-3 -11 -4 -15 -17 -63 -29 -93 -38 -93 -6 0 -9 -2 -6 -5 7 -7 -32 -130 -56
-174 -10 -18 -13 -30 -7 -27 7 4 8 1 5 -8 -3 -9 -9 -16 -13 -16 -4 0 -8 -7 -9
-15 -1 -8 -3 -22 -4 -30 -1 -8 -4 -15 -8 -15 -4 0 -7 -6 -8 -12 -1 -23 -50
-149 -64 -165 -11 -14 -11 -16 2 -8 13 8 13 7 0 -9 -14 -18 -19 -32 -24 -69
-1 -10 -9 -23 -17 -28 -8 -5 -11 -9 -7 -9 9 0 -38 -138 -53 -156 -6 -8 -9 -14
-6 -14 3 0 -1 -16 -9 -35 -8 -19 -11 -35 -8 -35 4 0 2 -6 -4 -13 -6 -7 -27
-59 -45 -115 -19 -56 -37 -99 -40 -96 -3 3 -8 -14 -12 -38 -4 -24 -13 -52 -20
-64 -7 -11 -22 -50 -34 -87 -11 -37 -26 -77 -33 -90 -7 -12 -11 -25 -10 -28 1
-4 -10 -36 -24 -70 -14 -35 -34 -91 -45 -124 -11 -33 -26 -72 -35 -88 -8 -15
-13 -31 -9 -36 3 -5 1 -12 -5 -16 -6 -4 -8 -11 -5 -16 4 -5 1 -9 -5 -9 -6 0
-9 -4 -5 -9 3 -5 1 -12 -4 -15 -5 -4 -17 -32 -26 -64 -9 -31 -23 -70 -30 -87
-20 -46 -34 -88 -37 -110 -2 -11 -9 -26 -16 -34 -21 -21 -8 -36 31 -36 21 0
37 -4 37 -8 0 -5 6 -5 13 0 14 8 203 7 217 -2 6 -3 10 -2 10 4 0 7 8 7 23 2
13 -5 30 -6 37 -1 7 5 24 4 37 -1 14 -5 23 -5 23 1 0 6 9 6 23 1 13 -5 30 -5
37 -1 9 5 20 4 27 -2 7 -6 13 -7 13 -2 0 5 14 9 30 9 17 0 30 -4 30 -9 0 -5 6
-4 13 2 6 5 22 8 34 6 18 -3 23 2 29 31 3 19 10 35 15 35 5 0 8 3 7 8 0 4 2
14 5 22 3 8 15 42 25 75 11 33 26 74 33 90 15 36 14 32 24 70 4 17 11 35 15
40 4 6 13 28 20 50 7 22 18 54 25 70 7 17 23 59 35 95 12 35 24 69 28 75 4 5
7 16 8 22 1 7 15 46 30 85 16 40 29 75 29 78 3 14 18 59 32 89 8 18 16 39 18
45 1 6 4 18 7 26 3 8 13 35 21 60 9 25 22 59 28 75 7 17 13 35 15 40 1 6 17
46 33 90 17 44 31 88 31 98 0 9 4 17 8 17 8 0 47 117 44 133 -1 4 2 7 7 7 4 0
18 35 31 78 13 42 29 86 36 97 7 11 13 23 13 28 1 16 14 63 21 72 4 6 18 42
31 80 13 39 29 73 34 77 6 4 6 8 1 8 -5 0 -3 7 4 15 7 8 10 15 6 15 -3 0 1 17
10 38 8 20 17 44 19 52 11 43 60 165 67 168 4 2 6 7 3 12 -3 4 2 21 10 36 8
16 15 38 15 48 0 11 8 28 18 39 12 15 13 18 2 12 -13 -7 -13 -6 -2 7 7 9 15
24 17 34 7 35 30 89 40 96 6 4 7 8 2 8 -4 0 -1 13 7 29 9 16 13 31 10 34 -3 3
2 17 11 31 10 14 13 26 9 26 -5 0 -4 4 2 8 6 4 21 41 34 82 12 41 26 80 30 85
4 6 13 28 19 50 7 22 15 47 18 55 4 8 7 17 8 20 1 3 5 12 8 20 10 24 37 104
37 111 0 4 -148 6 -329 7 l-330 0 -13 -32z"/>
<path d="M3051 3156 c-5 -6 -16 -35 -25 -65 -9 -29 -21 -60 -27 -67 -6 -8 -8
-14 -5 -14 4 0 2 -9 -4 -21 -7 -11 -14 -33 -16 -47 -3 -15 -9 -31 -13 -37 -5
-5 -18 -41 -31 -80 -12 -38 -31 -85 -41 -103 -11 -18 -15 -30 -9 -27 6 3 7 -1
4 -9 -3 -9 -9 -16 -13 -16 -3 0 -7 -12 -8 -27 0 -15 -6 -29 -12 -31 -6 -2 -9
-8 -5 -13 3 -5 0 -9 -7 -9 -7 0 -10 -3 -7 -6 4 -3 -4 -36 -17 -74 -13 -38 -20
-71 -17 -75 4 -4 1 -5 -7 -3 -7 2 -15 -6 -16 -17 -6 -38 -14 -63 -29 -94 -9
-17 -14 -31 -10 -31 4 0 2 -6 -3 -12 -6 -7 -18 -39 -28 -70 -10 -32 -22 -58
-27 -58 -5 0 -7 -4 -4 -9 3 -4 -5 -36 -18 -69 -13 -33 -21 -63 -18 -66 3 -3 0
-6 -6 -6 -7 0 -12 -8 -12 -18 0 -10 -3 -22 -7 -26 -5 -4 -8 -11 -9 -14 -2 -31
-18 -72 -26 -72 -6 0 -8 -3 -5 -7 4 -3 2 -12 -4 -20 -6 -7 -9 -13 -5 -13 3 0
-3 -24 -15 -52 -11 -29 -33 -89 -49 -134 -15 -45 -33 -90 -38 -101 -6 -11 -13
-32 -16 -46 -2 -14 -11 -41 -20 -59 -15 -34 -49 -125 -69 -188 -6 -19 -16 -38
-22 -42 -5 -4 -7 -8 -3 -8 4 0 -2 -24 -13 -52 -12 -29 -26 -69 -31 -88 -6 -19
-16 -46 -23 -60 -17 -33 -28 -61 -30 -82 -2 -10 -4 -20 -5 -23 -3 -7 -7 -22
-9 -36 0 -5 -5 -7 -11 -4 -5 3 -11 -3 -11 -14 -2 -21 -5 -37 -9 -46 -1 -3 -3
-8 -4 -12 -11 -43 -31 -93 -36 -93 -4 0 -11 -17 -15 -38 -4 -20 -15 -55 -25
-77 -10 -22 -22 -56 -28 -75 -5 -19 -20 -60 -32 -90 -12 -30 -23 -63 -25 -72
-2 -10 -10 -32 -19 -50 -8 -18 -25 -66 -37 -105 -13 -40 -27 -73 -31 -73 -4 0
-8 -12 -8 -26 0 -14 4 -23 9 -19 5 3 12 1 16 -5 4 -6 11 -7 18 -3 14 9 167 10
167 1 0 -4 13 -3 29 2 19 5 33 4 40 -3 8 -8 11 -8 11 0 0 10 58 9 88 -2 6 -2
12 0 12 5 0 6 9 6 23 1 14 -5 30 -5 40 0 11 7 17 6 17 -1 0 -6 5 -8 11 -5 17
11 59 13 59 3 0 -5 5 -6 12 -2 6 4 33 7 60 7 40 -1 51 3 60 21 6 11 11 22 10
24 -5 5 12 57 19 62 5 3 10 16 12 28 2 12 6 25 10 28 4 4 7 16 7 27 0 11 6 28
13 36 7 9 24 52 37 96 14 44 27 82 30 85 3 3 12 25 18 50 7 25 17 54 22 65 16
33 71 189 72 203 1 6 5 12 10 12 4 0 7 3 7 7 -1 5 0 10 1 13 1 3 3 12 6 20 11
43 74 214 75 205 0 -5 9 19 19 55 10 35 16 68 13 72 -2 5 1 7 8 6 7 -2 16 14
22 37 5 22 13 42 16 45 3 3 6 10 6 15 1 34 18 74 28 68 7 -3 9 -3 5 1 -3 4 0
25 7 47 8 21 11 39 7 39 -4 0 -2 4 3 8 9 6 33 61 38 87 2 6 5 15 9 20 3 6 9
25 13 43 3 17 10 32 15 32 5 0 7 9 5 20 -2 11 2 20 9 20 6 0 13 10 13 23 2 36
8 56 21 69 7 7 12 18 12 26 0 21 34 116 43 120 4 2 5 8 1 13 -3 5 0 9 7 9 7 0
10 3 6 6 -5 6 -1 22 29 99 4 11 6 24 5 29 -1 5 2 12 7 15 4 3 19 38 31 76 13
39 27 75 31 80 4 6 13 33 20 62 8 29 17 50 22 47 4 -3 8 4 8 15 0 23 34 123
56 163 8 15 14 29 14 30 -4 7 14 64 23 76 5 6 6 12 2 12 -4 0 -3 6 2 13 17 22
54 137 48 147 -3 6 0 10 8 10 7 0 14 6 15 13 1 14 10 51 12 55 2 1 3 5 4 10 1
4 10 22 19 40 10 17 15 32 12 32 -2 0 4 23 15 51 11 28 18 55 15 60 -4 5 -2 9
3 9 12 0 33 56 25 64 -4 3 -1 6 5 6 6 0 9 6 6 14 -7 18 -648 20 -663 2z"/>
<path d="M320 2932 c0 -7 -3 -11 -8 -8 -4 2 -18 -31 -31 -75 -13 -43 -27 -77
-30 -74 -4 2 -8 -5 -9 -16 -4 -43 -6 -49 -14 -49 -5 0 -7 -4 -3 -9 3 -5 1 -12
-5 -16 -6 -4 -8 -11 -4 -16 3 -5 1 -15 -4 -22 -9 -11 -89 -226 -107 -287 -4
-14 -11 -29 -15 -35 -4 -5 -10 -18 -13 -27 -6 -17 14 -18 333 -18 l340 0 6 40
c4 22 10 40 14 40 3 0 7 6 7 13 1 10 37 117 60 177 4 8 5 18 5 23 -1 4 2 7 6
7 5 0 14 24 22 53 7 28 17 59 21 67 18 32 48 120 41 120 -4 0 -2 4 3 8 11 8
46 104 40 110 -2 2 -150 4 -329 5 -263 2 -326 -1 -326 -11z"/>
</g>
</svg>
