<svg xmlns="http://www.w3.org/2000/svg" id="Layer_1" data-name="Layer 1" viewBox="0 0 84.8 28.35"><defs><style>.cls-1{fill:#1F214A;}</style></defs><title>apple-app-store</title><g id="_Group_" data-name="&lt;Group&gt;"><g id="_Group_2" data-name="&lt;Group&gt;"><g id="_Group_3" data-name="&lt;Group&gt;"><path id="_Path_" data-name="&lt;Path&gt;" class="cls-1" d="M17.71,14.09A3.64,3.64,0,0,1,19.45,11a3.75,3.75,0,0,0-2.94-1.6c-1.24-.12-2.44.75-3.07.75s-1.61-.73-2.66-.71a3.91,3.91,0,0,0-3.29,2c-1.43,2.47-.37,6.09,1,8.09.68,1,1.48,2.07,2.53,2s1.4-.65,2.63-.65,1.58.65,2.65.62,1.79-1,2.45-2a8.42,8.42,0,0,0,1.12-2.28A3.54,3.54,0,0,1,17.71,14.09Z"/><path id="_Path_2" data-name="&lt;Path&gt;" class="cls-1" d="M15.7,8.13a3.55,3.55,0,0,0,.82-2.57,3.68,3.68,0,0,0-2.36,1.22,3.41,3.41,0,0,0-.84,2.48A3,3,0,0,0,15.7,8.13Z"/></g></g><path class="cls-1" d="M30,19.23H26.62l-.8,2.38H24.4l3.17-8.8h1.48l3.18,8.8H30.78Zm-3-1.09h2.66l-1.31-3.87h0Z"/><path class="cls-1" d="M39.09,18.4c0,2-1.07,3.28-2.68,3.28a2.19,2.19,0,0,1-2-1.12h0v3.17H33.05V15.2h1.27v1.06h0a2.28,2.28,0,0,1,2-1.13C38,15.13,39.09,16.42,39.09,18.4Zm-1.35,0c0-1.3-.68-2.15-1.7-2.15s-1.68.87-1.68,2.15S35,20.56,36,20.56,37.74,19.71,37.74,18.4Z"/><path class="cls-1" d="M46.15,18.4c0,2-1.07,3.28-2.68,3.28a2.19,2.19,0,0,1-2-1.12h0v3.17H40.11V15.2h1.27v1.06h0a2.25,2.25,0,0,1,2-1.13C45.08,15.13,46.15,16.42,46.15,18.4Zm-1.35,0c0-1.3-.67-2.15-1.7-2.15s-1.68.87-1.68,2.15.68,2.16,1.68,2.16S44.8,19.71,44.8,18.4Z"/><path class="cls-1" d="M50.82,19.16c.1.87.94,1.45,2.1,1.45s1.91-.58,1.91-1.36-.48-1.1-1.62-1.38l-1.14-.27c-1.62-.39-2.37-1.15-2.37-2.37,0-1.52,1.32-2.57,3.2-2.57s3.14,1.05,3.18,2.57H54.75c-.08-.88-.8-1.41-1.87-1.41s-1.78.53-1.78,1.31c0,.63.46,1,1.6,1.27l1,.24c1.8.43,2.55,1.15,2.55,2.44,0,1.65-1.31,2.68-3.4,2.68s-3.27-1-3.35-2.6Z"/><path class="cls-1" d="M59.06,13.68V15.2h1.22v1H59.06v3.54c0,.54.25.8.78.8l.44,0v1a4.25,4.25,0,0,1-.73.06c-1.3,0-1.81-.49-1.81-1.73V16.24h-.93v-1h.93V13.68Z"/><path class="cls-1" d="M61,18.4a3.05,3.05,0,1,1,6.09,0c0,2-1.18,3.29-3,3.29S61,20.43,61,18.4Zm4.74,0c0-1.38-.63-2.2-1.7-2.2s-1.7.83-1.7,2.2S63,20.61,64,20.61,65.73,19.79,65.73,18.4Z"/><path class="cls-1" d="M68.16,15.2h1.26v1.09h0A1.53,1.53,0,0,1,71,15.13a1.69,1.69,0,0,1,.45,0v1.23a1.87,1.87,0,0,0-.59-.08,1.32,1.32,0,0,0-1.37,1.48v3.8H68.16Z"/><path class="cls-1" d="M77.52,19.73a2.59,2.59,0,0,1-2.77,2c-1.86,0-3-1.25-3-3.26s1.16-3.31,3-3.31,2.89,1.22,2.89,3.16v.45H73.06v.08a1.67,1.67,0,0,0,1.72,1.82,1.46,1.46,0,0,0,1.49-.9Zm-4.46-1.92h3.21a1.55,1.55,0,0,0-1.57-1.63A1.63,1.63,0,0,0,73.06,17.81Z"/></g><path class="cls-1" d="M26.81,6.19a1.87,1.87,0,0,1,2,2.1,1.88,1.88,0,0,1-2,2.13H25.28V6.19Zm-.87,3.63h.79a1.33,1.33,0,0,0,1.4-1.52,1.34,1.34,0,0,0-1.4-1.52h-.79Z"/><path class="cls-1" d="M29.54,8.82a1.51,1.51,0,1,1,3,0,1.51,1.51,0,1,1-3,0Zm2.36,0c0-.69-.31-1.1-.86-1.1s-.85.41-.85,1.1.31,1.1.85,1.1S31.9,9.51,31.9,8.82Z"/><path class="cls-1" d="M36.55,10.42h-.66l-.65-2.35h-.05l-.66,2.35h-.65L33,7.22h.64l.57,2.44h0l.66-2.44h.6l.66,2.44h0l.56-2.44h.63Z"/><path class="cls-1" d="M38.16,7.22h.61v.51h0a1,1,0,0,1,1-.57,1,1,0,0,1,1.1,1.19v2.07h-.63V8.51c0-.51-.22-.77-.68-.77a.74.74,0,0,0-.77.81v1.87h-.63Z"/><path class="cls-1" d="M41.88,6h.63v4.44h-.63Z"/><path class="cls-1" d="M43.38,8.82a1.51,1.51,0,1,1,3,0,1.51,1.51,0,1,1-3,0Zm2.36,0c0-.69-.31-1.1-.85-1.1S44,8.13,44,8.82s.31,1.1.86,1.1S45.74,9.51,45.74,8.82Z"/><path class="cls-1" d="M47.06,9.51c0-.57.42-.9,1.18-.95l.87-.05V8.24c0-.34-.23-.53-.66-.53s-.59.13-.66.35h-.61c.06-.55.58-.9,1.3-.9s1.25.4,1.25,1.08v2.18h-.6V10h-.05a1.07,1.07,0,0,1-1,.5A1,1,0,0,1,47.06,9.51Zm2-.27V9l-.78,0c-.44,0-.64.18-.64.46s.25.46.59.46A.75.75,0,0,0,49.11,9.24Z"/><path class="cls-1" d="M50.56,8.82c0-1,.52-1.65,1.33-1.65a1,1,0,0,1,1,.56h0V6h.63v4.44h-.6V9.91h0a1.1,1.1,0,0,1-1,.56C51.07,10.47,50.56,9.83,50.56,8.82Zm.65,0c0,.68.32,1.08.85,1.08s.86-.41.86-1.08-.33-1.08-.86-1.08S51.21,8.15,51.21,8.82Z"/><path class="cls-1" d="M56.15,8.82a1.51,1.51,0,1,1,3,0,1.51,1.51,0,1,1-3,0Zm2.36,0c0-.69-.31-1.1-.86-1.1s-.85.41-.85,1.1.31,1.1.85,1.1S58.51,9.51,58.51,8.82Z"/><path class="cls-1" d="M60,7.22h.61v.51h0a1,1,0,0,1,1-.57,1,1,0,0,1,1.1,1.19v2.07h-.63V8.51c0-.51-.22-.77-.69-.77a.73.73,0,0,0-.76.81v1.87H60Z"/><path class="cls-1" d="M66.27,6.43v.81H67v.53h-.69V9.41c0,.33.14.48.45.48H67v.52a1.79,1.79,0,0,1-.34,0c-.7,0-1-.24-1-.86V7.77h-.51V7.24h.51V6.43Z"/><path class="cls-1" d="M67.82,6h.63V7.74h0a1,1,0,0,1,1-.57,1.05,1.05,0,0,1,1.1,1.19v2.06h-.63V8.51c0-.51-.24-.77-.68-.77a.75.75,0,0,0-.81.81v1.87h-.63Z"/><path class="cls-1" d="M74.24,9.55a1.29,1.29,0,0,1-1.38.93,1.45,1.45,0,0,1-1.48-1.65,1.48,1.48,0,0,1,1.47-1.67c.89,0,1.43.61,1.43,1.61V9H72V9a.85.85,0,0,0,.85.91.75.75,0,0,0,.76-.39ZM72,8.53h1.62a.77.77,0,0,0-.79-.83A.83.83,0,0,0,72,8.53Z"/></svg>