<?xml version="1.0" standalone="no"?>
<!DOCTYPE svg PUBLIC "-//W3C//DTD SVG 20010904//EN"
 "http://www.w3.org/TR/2001/REC-SVG-20010904/DTD/svg10.dtd">
<svg version="1.0" xmlns="http://www.w3.org/2000/svg"
 width="500.000000pt" height="500.000000pt" viewBox="0 0 500.000000 500.000000"
 preserveAspectRatio="xMidYMid meet">
<metadata>
Created by potrace 1.11, written by Peter Selinger 2001-2013
</metadata>
<g transform="translate(0.000000,500.000000) scale(0.100000,-0.100000)"
fill="#000000" stroke="none">
<path d="M3691 4913 c-7 -15 -21 -54 -32 -88 -11 -33 -24 -69 -29 -80 -18 -39
-80 -210 -80 -220 0 -5 -6 -22 -14 -36 -7 -15 -21 -51 -31 -80 -9 -30 -23 -68
-31 -86 -8 -17 -14 -36 -14 -42 0 -8 94 -11 333 -9 l332 3 16 45 c9 25 19 52
22 60 3 8 27 74 52 145 25 72 50 139 55 150 5 11 16 40 24 65 8 25 26 75 40
113 14 37 26 72 26 77 0 6 -121 10 -328 10 l-329 0 -12 -27z"/>
<path d="M1266 3118 c-13 -29 -31 -78 -40 -108 -10 -30 -24 -67 -32 -82 -8
-14 -14 -32 -14 -40 -1 -7 -9 -31 -20 -53 -11 -22 -19 -46 -20 -53 0 -8 -11
-41 -24 -75 -14 -34 -45 -120 -71 -192 -25 -71 -50 -139 -55 -150 -5 -11 -17
-42 -25 -70 -9 -27 -20 -59 -25 -70 -5 -11 -27 -72 -50 -135 -22 -63 -45 -124
-50 -135 -5 -11 -22 -58 -38 -105 -30 -89 -117 -330 -132 -365 -4 -11 -13 -36
-20 -55 -7 -19 -19 -49 -26 -67 -8 -17 -14 -34 -14 -38 0 -3 -21 -63 -46 -133
-26 -70 -58 -158 -71 -197 -14 -38 -31 -83 -38 -100 -7 -16 -31 -82 -53 -145
-78 -220 -83 -235 -92 -255 -5 -11 -16 -40 -24 -65 -8 -25 -31 -88 -51 -140
-40 -104 -75 -207 -75 -221 0 -5 138 -9 330 -9 182 0 330 1 330 3 0 2 18 52
40 113 23 60 48 129 56 154 8 25 21 59 29 75 7 17 19 50 26 75 7 25 16 50 19
55 4 6 17 39 29 75 12 36 26 74 31 85 5 11 18 47 29 80 39 117 77 220 89 242
7 12 12 27 12 33 0 7 6 26 14 43 8 18 22 57 31 87 10 30 23 69 31 85 7 17 31
82 54 145 22 63 49 138 60 165 11 28 20 55 20 60 0 6 6 22 14 36 7 15 23 58
36 95 12 38 26 78 30 89 14 29 57 149 84 230 13 39 28 81 34 95 6 14 27 70 47
125 20 55 40 109 45 120 4 11 16 43 25 70 10 28 24 64 31 82 8 17 14 34 14 38
0 9 76 220 90 250 5 11 16 43 25 70 8 28 20 59 25 70 21 44 57 155 52 160 -3
3 -151 5 -329 5 l-323 0 -24 -52z"/>
<path d="M2157 3133 c-9 -21 -24 -58 -32 -83 -9 -25 -30 -83 -47 -130 -17 -47
-39 -110 -49 -140 -11 -30 -23 -64 -28 -75 -5 -11 -19 -47 -30 -80 -25 -74
-69 -193 -80 -220 -5 -11 -26 -67 -46 -125 -21 -58 -44 -118 -51 -135 -7 -16
-22 -61 -34 -99 -11 -38 -24 -74 -28 -80 -5 -6 -14 -31 -21 -56 -7 -25 -19
-58 -27 -75 -7 -16 -20 -50 -28 -75 -17 -52 -62 -176 -75 -205 -5 -11 -19 -49
-32 -85 -42 -125 -75 -215 -81 -225 -3 -6 -16 -41 -28 -80 -12 -38 -26 -74
-30 -80 -4 -5 -10 -23 -14 -40 -4 -16 -14 -43 -21 -60 -15 -35 -107 -286 -142
-390 -13 -38 -28 -79 -33 -90 -9 -20 -17 -42 -66 -180 -13 -38 -28 -79 -33
-90 -5 -11 -17 -45 -27 -75 -9 -30 -20 -59 -25 -64 -31 -34 -14 -36 321 -36
l330 0 12 28 c6 15 17 41 24 57 7 17 20 55 30 85 9 30 20 60 25 65 4 6 12 30
19 55 6 25 18 59 26 75 7 17 35 89 60 160 81 226 101 280 107 295 10 25 48
130 73 205 13 39 30 84 38 100 8 17 17 41 21 55 3 14 10 34 15 45 16 35 121
327 142 395 11 36 24 70 28 75 4 6 15 33 23 60 20 62 63 180 82 220 7 17 18
50 25 74 6 24 16 51 21 60 5 9 21 50 35 91 14 41 35 100 45 130 10 30 23 64
28 75 5 11 16 43 26 70 9 28 21 59 26 70 5 11 18 47 30 80 12 33 37 103 56
155 18 52 41 118 50 145 9 28 19 52 23 55 4 3 12 23 18 45 6 22 14 50 17 63
l7 22 -329 0 -330 0 -16 -37z"/>
<path d="M3030 3103 c-12 -38 -26 -77 -31 -88 -5 -11 -29 -78 -54 -150 -25
-71 -52 -143 -60 -160 -7 -16 -17 -43 -21 -60 -4 -16 -10 -34 -14 -40 -4 -5
-18 -41 -30 -80 -12 -38 -26 -74 -30 -80 -4 -5 -15 -37 -25 -70 -9 -33 -20
-64 -25 -70 -4 -5 -18 -44 -30 -85 -13 -41 -26 -79 -30 -85 -4 -5 -13 -28 -20
-50 -12 -39 -60 -169 -86 -230 -6 -16 -17 -46 -23 -65 -5 -19 -28 -84 -51
-145 -23 -60 -48 -132 -57 -160 -8 -27 -19 -54 -23 -60 -4 -5 -15 -37 -25 -70
-10 -33 -21 -64 -25 -70 -4 -5 -11 -21 -15 -35 -4 -14 -17 -52 -30 -85 -12
-33 -39 -107 -59 -165 -21 -58 -43 -118 -51 -135 -7 -16 -22 -57 -33 -90 -11
-33 -32 -91 -47 -130 -14 -38 -37 -104 -51 -145 -14 -41 -31 -88 -38 -105 -8
-16 -19 -48 -26 -70 -7 -22 -15 -44 -19 -50 -7 -13 -61 -164 -68 -193 l-5 -22
332 2 332 3 15 45 c7 25 18 54 23 65 12 25 55 141 82 220 11 33 26 74 33 90 7
17 17 44 21 60 4 17 13 41 20 55 7 14 22 52 33 85 11 33 32 92 46 130 37 100
84 231 106 295 11 30 22 62 26 70 8 19 60 162 78 215 7 22 32 90 55 150 23 61
61 166 85 235 25 69 49 134 54 145 5 11 17 45 27 75 9 30 20 60 24 65 4 6 14
33 23 60 16 53 61 176 76 210 5 11 19 47 30 80 37 111 77 220 82 230 4 6 16
41 29 79 12 37 29 80 36 95 8 14 14 32 14 39 0 8 6 28 14 45 31 71 94 253 89
260 -2 4 -152 7 -333 7 l-328 0 -22 -67z"/>
</g>
</svg>
